<svg width="24" height="24" viewBox="0 0 48 48" xmlns="http://www.w3.org/2000/svg" fill="context-fill" fill-opacity="context-fill-opacity">
  <path d="m37.31,12.46l-4.67,0l0,-4.34c0,-3.69 -2.76,-6.86 -6.29,-7.21a7.02,6.95 0 0 0 -7.73,6.91l0,4.63l-7,0a5.84,5.79 0 0 0 -5.84,5.79l0,5.21c0,1.60 1.31,2.89 2.92,2.89l3.79,0c1.95,0 3.61,1.37 3.78,3.11a3.48,3.45 0 0 1 -0.89,2.69c-0.67,0.73 -1.61,1.14 -2.60,1.14l-4.09,0c-1.61,0 -2.92,1.30 -2.92,2.89l0,5.21a5.84,5.79 0 0 0 5.84,5.79l25.70,0a5.84,5.79 0 0 0 5.84,-5.79l0,-23.16a5.84,5.79 0 0 0 -5.84,-5.79l0.00,-0.00zm2.34,29.41l-1.87,1.85l-26.63,0l-1.87,-1.85l0,-5.09l3.51,0c1.98,0 3.87,-0.83 5.20,-2.29a7.03,6.97 0 0 0 1.77,-5.37c-0.35,-3.50 -3.55,-6.24 -7.27,-6.24l-3.21,0l0,-5.09l1.87,-1.85l8.64,0a2.34,2.32 0 0 0 2.34,-2.32l0,-5.79a3.51,3.48 0 0 1 3.87,-3.46c1.76,0.17 3.14,1.82 3.14,3.75l0,5.50a2.34,2.32 0 0 0 2.34,2.32l6.31,0l1.87,1.85l0,24.08l0.00,-0.00z" fill="#a3a3a3"/>
  <path stroke-linejoin="round" stroke-linecap="round" stroke-width="3" stroke="#a3a3a3" d="m17.83,38.92l13,0"/>
  <path stroke-linejoin="round" stroke-linecap="round" stroke-width="3" stroke="#a3a3a3" d="m24.57,32.53l6,0"/>
  <path stroke-linejoin="round" stroke-linecap="round" stroke-width="3" stroke="#a3a3a3" d="m20.46,21.23l10,0"/>
  <path stroke-linejoin="round" stroke-linecap="round" stroke-width="3" stroke="#a3a3a3" d="m25.46,26.23l0,-10"/>
</svg>
